<svg xmlns="http://www.w3.org/2000/svg" xmlns:xlink="http://www.w3.org/1999/xlink" width="500" zoomAndPan="magnify" viewBox="0 0 375 374.999991" height="500" preserveAspectRatio="xMidYMid meet" version="1.2"><defs><clipPath id="3f83184b28"><path d="M 122 310 L 253 310 L 253 350.640625 L 122 350.640625 Z M 122 310 "/></clipPath><clipPath id="e62a9c87a9"><path d="M 122 47.640625 L 253 47.640625 L 253 84 L 122 84 Z M 122 47.640625 "/></clipPath></defs><g id="9221da6c37"><g clip-rule="nonzero" clip-path="url(#3f83184b28)"><path style=" stroke:none;fill-rule:nonzero;fill:#000000;fill-opacity:1;" d="M 251.871094 326.628906 L 248.417969 323.101562 C 246.738281 326.257812 246.152344 330 246.816406 333.601562 C 244.550781 334.632812 242.222656 335.664062 239.820312 336.542969 L 239.679688 336.25 L 243.980469 334.1875 C 243.765625 329.335938 244.933594 325.074219 247.476562 321.992188 C 246.832031 321.175781 246.246094 320.300781 245.738281 319.34375 C 245.167969 317.945312 244.71875 316.542969 244.503906 315.082031 C 244.273438 313.386719 244.347656 311.769531 244.640625 310.152344 C 227.519531 319.128906 208.164062 324.195312 187.546875 324.195312 C 166.925781 324.195312 147.554688 319.113281 130.449219 310.152344 C 130.957031 313.171875 130.820312 316.1875 129.355469 319.34375 C 128.707031 320.667969 127.832031 321.917969 126.734375 323.023438 L 123.160156 326.628906 C 124.238281 329.644531 124.101562 333.09375 122.5 336.113281 C 127.367188 338.527344 132.390625 340.59375 137.492188 342.425781 C 139.3125 336.390625 145.507812 332.941406 151.546875 334.558594 C 157.605469 336.171875 161.242188 342.347656 159.851562 348.445312 C 165.09375 349.398438 170.488281 350.121094 175.941406 350.570312 C 176.15625 344.332031 181.257812 339.328125 187.515625 339.328125 C 193.773438 339.328125 198.871094 344.316406 199.089844 350.570312 C 204.542969 350.136719 209.9375 349.398438 215.175781 348.445312 C 213.804688 342.347656 217.441406 336.171875 223.484375 334.558594 C 229.523438 332.941406 235.71875 336.464844 237.539062 342.425781 C 242.625 340.59375 247.648438 338.527344 252.53125 336.113281 C 250.929688 333.09375 250.777344 329.644531 251.871094 326.628906 Z M 135.226562 336.542969 C 132.824219 335.664062 130.480469 334.632812 128.230469 333.601562 L 128.230469 333.386719 L 133.703125 335.296875 C 138 330.523438 143.242188 328.246094 148.558594 329.492188 C 143.242188 329.492188 138.21875 332.140625 135.226562 336.542969 Z M 152.625 325.304688 L 152.550781 324.054688 C 154.152344 324.566406 155.675781 324.933594 157.28125 325.304688 L 157.433594 326.335938 Z M 172.210938 345.519531 C 169.730469 345.226562 167.1875 344.933594 164.707031 344.488281 L 164.707031 344.332031 L 170.101562 344.78125 C 173.089844 338.976562 177.605469 335.386719 183.140625 335.234375 C 178.039062 336.695312 173.953125 340.515625 172.210938 345.519531 Z M 185.835938 330.152344 L 185.464844 328.90625 C 186.113281 328.90625 186.835938 328.90625 187.5 328.90625 C 188.441406 328.90625 189.394531 328.90625 190.335938 328.90625 L 190.78125 329.9375 Z M 210.308594 344.488281 C 207.828125 344.933594 205.285156 345.226562 202.800781 345.519531 L 202.726562 345.304688 L 207.765625 344.425781 C 209.152344 337.804688 212.789062 333.109375 218.320312 331.707031 C 213.730469 334.339844 210.738281 339.191406 210.308594 344.488281 Z M 219.183594 326.195312 L 218.519531 325.164062 C 220.125 324.71875 221.648438 324.347656 223.253906 323.839844 L 223.839844 324.65625 Z M 219.183594 326.195312 "/></g><g clip-rule="nonzero" clip-path="url(#e62a9c87a9)"><path style=" stroke:none;fill-rule:nonzero;fill:#000000;fill-opacity:1;" d="M 123.730469 68.0625 L 127.816406 72.175781 C 128.476562 69.742188 128.617188 67.171875 128.183594 64.675781 C 130.449219 63.644531 132.777344 62.613281 135.179688 61.734375 C 135.691406 62.457031 136.273438 63.199219 136.859375 63.859375 L 131.035156 66.648438 C 131.191406 69.433594 130.820312 72.082031 130.019531 74.359375 L 139.417969 83.84375 C 154.214844 77.515625 170.441406 74.066406 187.484375 74.066406 C 204.527344 74.066406 220.769531 77.53125 235.550781 83.84375 L 251.207031 68.046875 C 251.128906 66.0625 251.578125 64 252.515625 62.167969 C 247.648438 59.75 242.625 57.6875 237.523438 55.855469 C 235.703125 61.8125 229.523438 65.339844 223.46875 63.722656 C 217.410156 62.105469 213.773438 55.929688 215.160156 49.835938 C 209.921875 48.878906 204.527344 48.15625 199.074219 47.710938 C 198.859375 53.960938 193.757812 58.949219 187.4375 58.964844 C 181.183594 58.964844 176.082031 53.976562 175.863281 47.726562 C 170.410156 48.15625 165.015625 48.894531 159.777344 49.847656 C 161.148438 55.945312 157.511719 62.121094 151.46875 63.738281 C 145.429688 65.351562 139.234375 61.828125 137.414062 55.871094 C 132.332031 57.703125 127.304688 59.765625 122.421875 62.183594 C 123.363281 64.03125 123.808594 66.078125 123.730469 68.0625 Z M 222.21875 68.277344 C 229 70.109375 235.980469 67.324219 239.773438 61.734375 C 242.175781 62.613281 244.519531 63.644531 246.769531 64.675781 C 246.628906 65.570312 246.554688 66.523438 246.554688 67.402344 L 241.296875 65.554688 C 234.886719 72.683594 226.304688 74.296875 218.796875 66.878906 C 219.894531 67.476562 220.988281 67.910156 222.21875 68.277344 Z M 187.5 63.644531 C 194.480469 63.644531 200.539062 59.164062 202.789062 52.773438 C 205.269531 53.066406 207.8125 53.359375 210.292969 53.804688 C 210.355469 54.761719 210.507812 55.636719 210.722656 56.59375 L 204.914062 56.085938 C 200.460938 64.753906 192.460938 68.570312 183.0625 63.058594 C 184.511719 63.429688 185.972656 63.644531 187.5 63.644531 Z M 152.75 68.277344 C 159.53125 66.445312 164.183594 60.488281 164.691406 53.804688 C 167.171875 53.359375 169.714844 53.066406 172.199219 52.773438 C 172.488281 53.652344 172.9375 54.546875 173.367188 55.347656 L 167.234375 56.515625 C 165.199219 66.0625 158.359375 71.867188 147.726562 68.785156 C 149.40625 68.863281 151.070312 68.726562 152.75 68.277344 Z M 152.75 68.277344 "/></g><path style=" stroke:none;fill-rule:nonzero;fill:#000000;fill-opacity:1;" d="M 107.84375 319.867188 L 118.320312 309.292969 L 118.105469 308.550781 L 107.335938 319.359375 Z M 107.84375 319.867188 "/><path style=" stroke:none;fill-rule:nonzero;fill:#000000;fill-opacity:1;" d="M 110.679688 322.71875 L 118.539062 314.789062 C 119.339844 313.988281 119.261719 312.585938 118.753906 310.753906 L 108.78125 320.808594 Z M 110.679688 322.71875 "/><path style=" stroke:none;fill-rule:nonzero;fill:#000000;fill-opacity:1;" d="M 89.058594 282.117188 C 84.171875 282.117188 79.300781 283.734375 75.21875 286.96875 L 76.527344 288.292969 C 80.179688 285.488281 84.542969 284.027344 89.058594 284.027344 C 91.96875 284.027344 94.882812 284.613281 97.503906 285.859375 C 96.761719 284.964844 96.191406 284.085938 95.683594 283.148438 C 93.574219 282.488281 91.308594 282.117188 89.058594 282.117188 Z M 89.058594 282.117188 "/><path style=" stroke:none;fill-rule:nonzero;fill:#000000;fill-opacity:1;" d="M 96.410156 331.847656 C 95.976562 332.292969 95.3125 332.140625 94.804688 331.847656 C 93.496094 331.046875 90.214844 329.058594 87.886719 327.582031 L 96.917969 336.695312 L 106.886719 326.550781 L 102.449219 325.75 Z M 96.410156 331.847656 "/><path style=" stroke:none;fill-rule:nonzero;fill:#000000;fill-opacity:1;" d="M 68.222656 291.292969 L 67.421875 286.734375 L 57.449219 296.882812 L 66.480469 305.917969 C 64.941406 303.5625 63.058594 300.253906 62.179688 298.929688 C 61.890625 298.421875 61.75 297.757812 62.179688 297.3125 Z M 68.222656 291.292969 "/><path style=" stroke:none;fill-rule:nonzero;fill:#000000;fill-opacity:1;" d="M 78.640625 315.25 C 84.386719 321.132812 93.710938 321.132812 99.535156 315.25 C 105.285156 309.445312 105.285156 300.039062 99.535156 294.234375 C 93.710938 288.351562 84.386719 288.351562 78.640625 294.234375 C 72.890625 300.039062 72.890625 309.445312 78.640625 315.25 Z M 81.476562 297.097656 C 85.621094 292.832031 92.480469 292.832031 96.699219 297.097656 C 100.847656 301.285156 100.847656 308.199219 96.699219 312.386719 C 92.480469 316.652344 85.636719 316.652344 81.476562 312.386719 C 77.253906 308.199219 77.253906 301.285156 81.476562 297.097656 Z M 81.476562 297.097656 "/><path style=" stroke:none;fill-rule:nonzero;fill:#000000;fill-opacity:1;" d="M 296.359375 315.25 C 302.109375 309.445312 302.109375 300.039062 296.359375 294.234375 C 290.613281 288.351562 281.289062 288.351562 275.464844 294.234375 C 269.714844 300.039062 269.714844 309.445312 275.464844 315.25 C 281.289062 321.132812 290.613281 321.132812 296.359375 315.25 Z M 278.300781 297.097656 C 282.519531 292.832031 289.378906 292.832031 293.523438 297.097656 C 297.746094 301.285156 297.746094 308.199219 293.523438 312.386719 C 289.363281 316.652344 282.519531 316.652344 278.300781 312.386719 C 274.152344 308.199219 274.152344 301.285156 278.300781 297.097656 Z M 278.300781 297.097656 "/><path style=" stroke:none;fill-rule:nonzero;fill:#000000;fill-opacity:1;" d="M 256.460938 314.789062 L 264.320312 322.71875 L 266.21875 320.808594 L 256.246094 310.753906 C 255.738281 312.585938 255.660156 313.988281 256.460938 314.789062 Z M 256.460938 314.789062 "/><path style=" stroke:none;fill-rule:nonzero;fill:#000000;fill-opacity:1;" d="M 256.679688 309.292969 L 267.15625 319.867188 L 267.664062 319.359375 L 256.894531 308.550781 Z M 256.679688 309.292969 "/><path style=" stroke:none;fill-rule:nonzero;fill:#000000;fill-opacity:1;" d="M 298.472656 288.292969 L 299.78125 286.96875 C 295.699219 283.734375 290.828125 282.117188 285.941406 282.117188 C 283.691406 282.117188 281.425781 282.488281 279.316406 283.148438 C 278.808594 284.085938 278.238281 284.964844 277.496094 285.859375 C 280.117188 284.613281 283.03125 284.027344 285.941406 284.027344 C 290.457031 284.027344 294.820312 285.488281 298.472656 288.292969 Z M 298.472656 288.292969 "/><path style=" stroke:none;fill-rule:nonzero;fill:#000000;fill-opacity:1;" d="M 278.589844 331.847656 L 272.550781 325.75 L 268.113281 326.550781 L 278.082031 336.695312 L 287.113281 327.582031 C 284.785156 329.058594 281.503906 331.046875 280.195312 331.847656 C 279.6875 332.140625 279.023438 332.292969 278.589844 331.847656 Z M 278.589844 331.847656 "/><path style=" stroke:none;fill-rule:nonzero;fill:#000000;fill-opacity:1;" d="M 312.820312 298.929688 C 311.941406 300.253906 310.058594 303.5625 308.519531 305.917969 L 317.550781 296.882812 L 307.578125 286.734375 L 306.777344 291.292969 L 312.820312 297.3125 C 313.25 297.757812 313.109375 298.421875 312.820312 298.929688 Z M 312.820312 298.929688 "/><path style=" stroke:none;fill-rule:nonzero;fill:#000000;fill-opacity:1;" d="M 336.84375 180.363281 C 336.457031 177.285156 335.996094 174.234375 335.457031 171.21875 C 329.414062 172.617188 323.296875 168.9375 321.695312 162.84375 C 320.09375 156.746094 323.589844 150.496094 329.492188 148.664062 C 328.320312 145.429688 327.089844 142.117188 325.703125 138.960938 L 322.15625 142.550781 C 322.664062 143.796875 323.175781 145.042969 323.683594 146.367188 C 323.097656 146.738281 322.589844 147.167969 322.082031 147.617188 L 320.476562 144.304688 L 305.191406 159.730469 C 306.902344 164.921875 308.273438 170.277344 309.304688 175.761719 L 284.632812 171.648438 L 336.257812 119.546875 C 337.492188 118.300781 337.859375 116.46875 337.199219 114.851562 C 334.871094 109.125 331.449219 103.75 327.796875 98.839844 C 322.882812 92.3125 317.273438 86.136719 311.523438 80.257812 C 305.699219 74.453125 299.582031 68.785156 293.109375 63.796875 C 288.222656 60.117188 282.90625 56.671875 277.234375 54.3125 C 275.632812 53.652344 273.8125 54.023438 272.582031 55.269531 L 209.382812 119.054688 L 216.378906 129.339844 L 217.179688 129.554688 C 223.4375 131.171875 229.339844 133.589844 234.734375 136.976562 L 212.386719 159.53125 L 187.5 155.359375 L 162.628906 159.53125 L 140.28125 136.976562 C 145.675781 133.589844 151.578125 131.171875 157.835938 129.554688 L 158.636719 129.339844 L 165.632812 119.054688 L 102.433594 55.269531 C 101.199219 54.023438 99.382812 53.652344 97.78125 54.3125 C 92.109375 56.667969 86.792969 60.117188 81.90625 63.796875 C 75.433594 68.785156 69.316406 74.453125 63.492188 80.257812 C 57.742188 86.136719 52.132812 92.3125 47.1875 98.855469 C 43.535156 103.765625 40.113281 109.140625 37.785156 114.867188 C 37.125 116.484375 37.492188 118.316406 38.726562 119.5625 L 90.351562 171.648438 L 65.726562 175.761719 C 66.742188 170.277344 68.113281 164.9375 69.839844 159.761719 L 54.554688 144.257812 L 53.890625 146.089844 C 60.378906 152.109375 62.273438 159.980469 56.664062 167.105469 C 57.171875 166.152344 57.542969 165.121094 57.835938 164.089844 C 59.652344 157.253906 56.878906 150.203125 51.347656 146.382812 C 51.855469 145.058594 52.363281 143.8125 52.875 142.566406 L 49.296875 138.960938 C 47.910156 142.117188 46.679688 145.429688 45.507812 148.664062 C 51.488281 150.496094 54.90625 156.746094 53.304688 162.84375 C 51.703125 168.9375 45.585938 172.617188 39.542969 171.21875 C 39.003906 174.21875 38.542969 177.269531 38.15625 180.363281 L 0 186.722656 L 0 249.632812 L 48.621094 257.777344 C 49.589844 260.132812 50.640625 262.457031 51.765625 264.765625 C 57.234375 261.824219 64.078125 263.8125 67.207031 269.246094 C 67.34375 269.539062 67.5 269.832031 67.636719 270.125 L 71.011719 266.765625 C 72.027344 265.734375 73.261719 264.859375 74.648438 264.195312 C 74.878906 264.042969 75.09375 263.980469 75.3125 263.828125 L 75.742188 263.378906 L 75.882812 263.59375 C 76.820312 263.304688 77.777344 263.011719 78.792969 262.933594 C 78.886719 262.917969 78.964844 262.902344 79.054688 262.886719 L 93.789062 265.351562 L 105.53125 267.320312 L 103.699219 269.167969 C 94.960938 278.050781 85.128906 265.9375 77.269531 269.753906 C 76.542969 270.125 75.882812 270.570312 75.296875 271.15625 C 67.789062 278.792969 60.222656 286.367188 52.71875 294.003906 L 49.882812 296.867188 L 61.320312 308.398438 C 62.121094 314.574219 64.894531 320.300781 69.253906 324.703125 C 73.691406 329.105469 79.300781 331.910156 85.421875 332.710938 L 96.933594 344.242188 L 99.707031 341.378906 C 107.273438 333.800781 114.855469 326.164062 122.359375 318.605469 C 122.945312 318.019531 123.375 317.359375 123.746094 316.621094 C 127.539062 308.691406 115.515625 298.835938 124.332031 289.953125 L 140.898438 273.25 L 187.5 281.070312 L 234.101562 273.25 L 250.652344 289.953125 C 259.46875 298.835938 247.445312 308.691406 251.238281 316.621094 C 251.609375 317.359375 252.039062 318.019531 252.625 318.605469 C 260.128906 326.164062 267.710938 333.800781 275.277344 341.378906 L 278.050781 344.242188 L 289.5625 332.710938 C 295.683594 331.910156 301.292969 329.105469 305.730469 324.703125 C 310.089844 320.300781 312.863281 314.574219 313.667969 308.398438 L 325.101562 296.867188 L 322.265625 294.003906 C 314.761719 286.367188 307.195312 278.792969 299.6875 271.15625 C 299.101562 270.570312 298.441406 270.125 297.714844 269.753906 C 289.855469 265.9375 280.023438 278.050781 271.285156 269.167969 L 269.453125 267.320312 L 281.210938 265.351562 L 296.175781 262.839844 C 297.144531 262.964844 298.132812 263.210938 299.148438 263.566406 C 299.441406 263.117188 299.65625 262.6875 299.949219 262.242188 L 300.242188 262.316406 L 299.582031 263.71875 C 299.796875 263.871094 300.089844 264.011719 300.382812 264.164062 C 301.769531 264.828125 303.003906 265.703125 304.019531 266.734375 L 307.363281 270.125 C 307.5 269.832031 307.65625 269.539062 307.792969 269.246094 C 310.921875 263.8125 317.78125 261.824219 323.234375 264.765625 C 324.359375 262.472656 325.394531 260.132812 326.378906 257.777344 L 375 249.632812 L 375 186.722656 Z M 317.195312 164.167969 C 319.089844 170.925781 324.914062 175.636719 331.542969 176.144531 C 331.742188 177.269531 331.898438 178.421875 332.050781 179.5625 L 325.457031 178.46875 C 319.890625 175.804688 316.5625 170.894531 317.195312 164.167969 Z M 306.128906 146.691406 L 281.890625 171.1875 L 281.210938 171.078125 L 279.332031 170.773438 L 305.761719 144.042969 C 305.976562 144.488281 306.191406 144.921875 306.421875 145.445312 C 306.5625 145.890625 306.5 146.398438 306.128906 146.691406 Z M 241.191406 164.367188 L 253.101562 152.34375 C 253.394531 152.710938 253.609375 153.082031 253.902344 153.449219 L 242.808594 164.644531 Z M 234.457031 163.242188 L 249.589844 147.984375 C 249.882812 148.277344 250.175781 148.648438 250.46875 148.941406 L 236.027344 163.503906 Z M 222.019531 161.148438 L 242.085938 140.78125 C 242.886719 141.441406 243.6875 142.105469 244.410156 142.84375 L 225.671875 161.765625 Z M 255.277344 157.777344 C 257.171875 160.855469 258.789062 164.136719 260.113281 167.539062 L 247.664062 165.445312 Z M 272.628906 116.855469 C 271.316406 115.53125 269.714844 114.652344 268.113281 114.128906 C 270.515625 114.5 272.84375 115.53125 274.660156 117.4375 C 279.101562 121.917969 279.101562 129.203125 274.660156 133.683594 C 270.222656 138.085938 263.089844 138.085938 258.652344 133.683594 C 256.753906 131.773438 255.660156 129.417969 255.367188 127 C 255.800781 128.695312 256.753906 130.234375 257.988281 131.558594 C 262.070312 135.589844 268.542969 135.589844 272.628906 131.558594 C 276.632812 127.523438 276.632812 120.902344 272.628906 116.855469 Z M 269.269531 143.535156 C 272.6875 142.949219 275.972656 141.257812 278.589844 138.609375 C 281.289062 135.960938 282.890625 132.648438 283.476562 129.203125 L 290.75 121.84375 C 292.058594 123.398438 293.308594 124.9375 294.542969 126.476562 L 265.324219 155.945312 C 264.304688 154.265625 263.148438 152.496094 261.980469 150.878906 Z M 297.023438 129.632812 L 297.160156 129.847656 C 297.960938 130.957031 298.839844 132.125 299.640625 133.296875 L 269.285156 163.9375 C 268.746094 162.457031 268.097656 161.027344 267.386719 159.59375 Z M 294.632812 117.945312 L 299.132812 113.390625 C 300.445312 114.929688 301.675781 116.46875 302.925781 118.023438 L 298.488281 122.582031 C 297.253906 121.042969 295.945312 119.503906 294.632812 117.945312 Z M 303.496094 129.402344 C 302.695312 128.230469 301.890625 127.046875 301.015625 125.875 L 300.875 125.722656 L 305.390625 121.179688 L 305.527344 121.394531 C 306.332031 122.503906 307.210938 123.675781 308.011719 124.84375 Z M 303.003906 109.511719 L 307.5 104.953125 C 308.8125 106.492188 310.042969 108.03125 311.292969 109.585938 L 306.855469 114.144531 C 305.621094 112.527344 304.3125 111.066406 303.003906 109.511719 Z M 314.5 138.238281 L 310.570312 142.273438 C 310.570312 142.117188 310.492188 141.980469 310.429688 141.828125 C 310.214844 141.242188 309.921875 140.71875 309.707031 140.132812 L 314.128906 135.589844 C 314.34375 136.039062 314.558594 136.46875 314.792969 136.992188 C 314.929688 137.4375 314.867188 137.945312 314.5 138.238281 Z M 311.863281 120.980469 C 311.0625 119.808594 310.261719 118.625 309.382812 117.453125 L 309.242188 117.300781 L 313.757812 112.742188 L 313.898438 112.898438 C 314.699219 114.066406 315.578125 115.253906 316.378906 116.421875 Z M 322.867188 129.785156 L 318.9375 133.757812 C 318.9375 133.683594 318.859375 133.542969 318.796875 133.390625 C 318.582031 132.804688 318.367188 132.21875 318.074219 131.695312 L 322.574219 127.136719 C 322.710938 127.585938 322.941406 128.015625 323.160156 128.460938 C 323.296875 128.96875 323.234375 129.496094 322.867188 129.785156 Z M 335.085938 115.761719 C 335.457031 116.5 335.242188 117.378906 334.65625 117.960938 L 327.304688 125.304688 C 327.304688 125.230469 327.242188 125.089844 327.164062 124.9375 C 326.949219 124.335938 326.734375 123.75 326.441406 123.167969 L 334.71875 114.804688 C 334.871094 115.175781 335.007812 115.46875 335.085938 115.761719 Z M 326.054688 100.332031 C 327.027344 101.613281 327.84375 102.875 328.691406 104.074219 L 320.246094 112.527344 C 319.445312 111.355469 318.644531 110.171875 317.765625 109 L 317.625 108.847656 L 326.054688 100.332031 C 325.996094 100.289062 325.964844 100.242188 325.917969 100.179688 Z M 323.589844 97.160156 L 315.222656 105.691406 C 313.988281 104.074219 312.679688 102.597656 311.371094 101.058594 L 319.800781 92.605469 C 321.109375 94.144531 322.417969 95.699219 323.589844 97.160156 Z M 274.152344 56.902344 C 274.816406 56.300781 275.617188 56.160156 276.339844 56.453125 C 285.804688 60.410156 296.652344 68.570312 309.90625 81.875 C 312.542969 84.582031 314.945312 87.09375 317.195312 89.585938 L 308.75 98.039062 C 306.40625 95.46875 303.941406 92.898438 301.460938 90.402344 C 295.710938 84.597656 289.59375 78.855469 283.03125 73.960938 C 278.160156 70.28125 272.84375 66.832031 267.234375 64.476562 C 267.078125 64.398438 266.941406 64.320312 266.863281 64.320312 Z M 262.441406 68.785156 C 262.8125 68.417969 263.242188 68.339844 263.75 68.496094 C 269.207031 70.910156 274.382812 74.222656 279.191406 77.824219 C 285.742188 82.828125 291.78125 88.480469 297.609375 94.28125 C 300.089844 96.777344 302.492188 99.347656 304.898438 101.996094 L 300.382812 106.476562 C 298.039062 103.921875 295.558594 101.351562 293.09375 98.855469 C 287.34375 93.050781 281.226562 87.386719 274.675781 82.398438 C 269.792969 78.71875 264.476562 75.269531 258.882812 72.914062 C 258.742188 72.835938 258.589844 72.835938 258.511719 72.757812 Z M 254.058594 77.222656 C 254.429688 76.855469 254.859375 76.777344 255.367188 76.929688 C 260.824219 79.347656 266 82.660156 270.808594 86.339844 C 277.296875 91.265625 283.398438 96.914062 289.226562 102.71875 C 291.707031 105.214844 294.109375 107.785156 296.515625 110.433594 L 292 114.992188 C 289.59375 112.375 287.191406 109.800781 284.710938 107.292969 C 278.960938 101.488281 272.84375 95.824219 266.292969 90.835938 C 261.410156 87.15625 256.09375 83.707031 250.5 81.351562 C 250.359375 81.273438 250.207031 81.273438 250.128906 81.195312 Z M 216.410156 120.8125 L 213.128906 118.53125 L 245.675781 85.691406 C 246.042969 85.324219 246.476562 85.246094 246.984375 85.398438 C 252.457031 87.832031 257.617188 91.125 262.425781 94.804688 C 268.898438 99.734375 275.015625 105.382812 280.839844 111.265625 C 283.246094 113.683594 285.726562 116.253906 288.128906 118.902344 L 283.617188 123.457031 C 283.03125 119.777344 281.425781 116.253906 278.589844 113.464844 C 271.75 106.492188 260.609375 106.492188 253.6875 113.464844 C 246.847656 120.363281 246.847656 131.617188 253.6875 138.59375 C 256.523438 141.394531 259.960938 143.089844 263.597656 143.597656 L 259.589844 147.632812 C 257.25 144.691406 254.84375 141.964844 252.59375 139.761719 C 243.855469 130.957031 229 119.5625 216.410156 120.8125 Z M 239.015625 138.378906 C 239.386719 138.671875 239.742188 138.960938 240.113281 139.179688 L 219.675781 160.765625 L 217.242188 160.347656 Z M 157.789062 160.347656 L 155.367188 160.75 L 134.917969 139.179688 C 135.289062 138.960938 135.644531 138.671875 136.011719 138.378906 Z M 149.359375 161.75 L 130.636719 142.859375 C 131.359375 142.117188 132.160156 141.457031 132.960938 140.796875 L 153.011719 161.148438 Z M 138.988281 163.503906 L 124.578125 148.953125 C 124.871094 148.664062 125.164062 148.292969 125.457031 148 L 140.558594 163.226562 Z M 132.191406 164.644531 L 121.097656 153.433594 C 121.390625 153.082031 121.605469 152.710938 121.898438 152.34375 L 133.808594 164.367188 Z M 77.839844 129.847656 L 77.976562 129.632812 L 107.613281 159.59375 C 106.902344 161.027344 106.253906 162.457031 105.714844 163.9375 L 75.359375 133.296875 C 76.160156 132.125 77.039062 130.957031 77.839844 129.847656 Z M 72.074219 118.023438 C 73.324219 116.46875 74.554688 114.929688 75.867188 113.390625 L 80.367188 117.945312 C 79.054688 119.503906 77.746094 121.042969 76.511719 122.582031 Z M 102.371094 131.558594 C 106.457031 135.589844 112.929688 135.589844 117.011719 131.558594 C 118.246094 130.234375 119.199219 128.695312 119.632812 127 C 119.339844 129.417969 118.246094 131.773438 116.347656 133.683594 C 111.910156 138.085938 104.777344 138.085938 100.339844 133.683594 C 95.898438 129.203125 95.898438 121.917969 100.339844 117.4375 C 102.15625 115.53125 104.484375 114.5 106.886719 114.128906 C 105.285156 114.652344 103.683594 115.53125 102.371094 116.855469 C 98.367188 120.902344 98.367188 127.523438 102.371094 131.558594 Z M 105.730469 143.535156 L 113.019531 150.878906 C 111.851562 152.496094 110.695312 154.265625 109.675781 155.945312 L 80.457031 126.476562 C 81.691406 124.9375 82.941406 123.398438 84.25 121.84375 L 91.523438 129.203125 C 92.109375 132.652344 93.710938 135.960938 96.410156 138.609375 C 99.027344 141.257812 102.3125 142.949219 105.730469 143.535156 Z M 127.320312 165.460938 L 114.871094 167.554688 C 116.195312 164.152344 117.8125 160.871094 119.710938 157.792969 Z M 129.324219 85.691406 L 161.871094 118.53125 L 158.589844 120.8125 C 146 119.5625 131.144531 130.957031 122.40625 139.761719 C 120.15625 141.964844 117.75 144.691406 115.410156 147.632812 L 111.402344 143.597656 C 115.039062 143.089844 118.476562 141.394531 121.3125 138.59375 C 128.152344 131.617188 128.152344 120.363281 121.3125 113.464844 C 114.390625 106.492188 103.25 106.492188 96.410156 113.464844 C 93.574219 116.253906 91.96875 119.777344 91.382812 123.457031 L 86.871094 118.902344 C 89.273438 116.253906 91.753906 113.683594 94.160156 111.265625 C 99.984375 105.382812 106.101562 99.734375 112.574219 94.804688 C 117.382812 91.125 122.542969 87.832031 128.015625 85.398438 C 128.523438 85.246094 128.957031 85.324219 129.324219 85.691406 Z M 120.941406 77.222656 L 124.871094 81.195312 C 124.792969 81.273438 124.640625 81.273438 124.5 81.351562 C 118.90625 83.707031 113.589844 87.15625 108.707031 90.835938 C 102.15625 95.824219 96.039062 101.488281 90.289062 107.292969 C 87.808594 109.800781 85.40625 112.375 83 114.992188 L 78.484375 110.433594 C 80.890625 107.785156 83.292969 105.214844 85.773438 102.71875 C 91.601562 96.914062 97.703125 91.265625 104.191406 86.339844 C 109 82.660156 114.175781 79.347656 119.632812 76.929688 C 120.140625 76.777344 120.570312 76.855469 120.941406 77.222656 Z M 112.558594 68.785156 L 116.488281 72.757812 C 116.410156 72.835938 116.257812 72.835938 116.117188 72.914062 C 110.523438 75.269531 105.207031 78.71875 100.324219 82.398438 C 93.773438 87.386719 87.65625 93.050781 81.90625 98.855469 C 79.441406 101.351562 76.960938 103.921875 74.617188 106.476562 L 70.101562 101.996094 C 72.507812 99.347656 74.910156 96.777344 77.390625 94.28125 C 83.21875 88.480469 89.257812 82.828125 95.808594 77.824219 C 100.617188 74.222656 105.792969 70.910156 111.25 68.496094 C 111.757812 68.339844 112.1875 68.417969 112.558594 68.785156 Z M 71.996094 109.511719 C 70.6875 111.066406 69.378906 112.527344 68.144531 114.144531 L 63.707031 109.585938 C 64.957031 108.03125 66.1875 106.492188 67.5 104.953125 Z M 65.09375 81.875 C 78.347656 68.570312 89.195312 60.410156 98.660156 56.453125 C 99.382812 56.160156 100.183594 56.300781 100.847656 56.902344 L 108.136719 64.320312 C 108.058594 64.320312 107.921875 64.398438 107.765625 64.476562 C 102.15625 66.832031 96.839844 70.28125 91.96875 73.960938 C 85.40625 78.855469 79.289062 84.597656 73.539062 90.402344 C 71.058594 92.898438 68.59375 95.46875 66.25 98.039062 L 57.804688 89.585938 C 60.054688 87.09375 62.457031 84.582031 65.09375 81.875 Z M 55.199219 92.605469 L 63.628906 101.058594 C 62.320312 102.597656 61.011719 104.074219 59.777344 105.691406 L 51.410156 97.160156 C 52.582031 95.699219 53.890625 94.144531 55.199219 92.605469 Z M 47.835938 124.9375 C 47.757812 125.089844 47.695312 125.230469 47.695312 125.304688 L 40.328125 117.945312 C 39.742188 117.363281 39.527344 116.484375 39.898438 115.746094 C 39.976562 115.453125 40.113281 115.160156 40.269531 114.789062 L 48.558594 123.167969 C 48.265625 123.75 48.050781 124.335938 47.835938 124.9375 Z M 56.203125 133.390625 C 56.140625 133.542969 56.0625 133.683594 56.0625 133.757812 L 52.132812 129.785156 C 51.765625 129.496094 51.703125 128.96875 51.839844 128.460938 C 52.058594 128.015625 52.289062 127.585938 52.425781 127.136719 L 56.925781 131.695312 C 56.632812 132.21875 56.417969 132.804688 56.203125 133.390625 Z M 57.234375 109 C 56.355469 110.171875 55.554688 111.355469 54.753906 112.527344 L 46.308594 104.074219 C 47.15625 102.875 47.972656 101.613281 48.960938 100.347656 L 48.945312 100.332031 L 49.082031 100.179688 C 49.035156 100.242188 49.003906 100.289062 48.960938 100.347656 L 57.375 108.847656 Z M 64.570312 141.828125 C 64.507812 141.980469 64.429688 142.117188 64.429688 142.273438 L 60.5 138.238281 C 60.132812 137.945312 60.070312 137.4375 60.207031 136.992188 C 60.441406 136.46875 60.65625 136.039062 60.871094 135.589844 L 65.292969 140.132812 C 65.078125 140.71875 64.785156 141.242188 64.570312 141.828125 Z M 65.617188 117.453125 C 64.738281 118.625 63.9375 119.808594 63.136719 120.980469 L 58.621094 116.421875 C 59.421875 115.253906 60.300781 114.066406 61.101562 112.898438 L 61.242188 112.742188 L 65.757812 117.300781 Z M 69.46875 121.394531 L 69.609375 121.179688 L 74.125 125.722656 L 73.984375 125.875 C 73.109375 127.046875 72.304688 128.230469 71.503906 129.402344 L 66.988281 124.84375 C 67.789062 123.675781 68.667969 122.503906 69.46875 121.394531 Z M 68.871094 146.691406 C 68.5 146.398438 68.4375 145.890625 68.578125 145.445312 C 68.808594 144.921875 69.023438 144.488281 69.238281 144.042969 L 95.667969 170.773438 L 93.789062 171.078125 L 93.109375 171.1875 Z M 43.472656 176.144531 C 43.980469 176.144531 44.488281 176.082031 45 175.929688 L 44.753906 179.253906 L 42.964844 179.546875 C 43.117188 178.40625 43.273438 177.269531 43.472656 176.144531 Z M 54.246094 258.945312 C 54.214844 258.867188 54.167969 258.792969 54.136719 258.699219 L 54.9375 258.839844 C 54.707031 258.867188 54.476562 258.898438 54.246094 258.945312 Z M 70.488281 265.703125 C 68.886719 263.394531 66.789062 261.625 64.429688 260.425781 L 66.914062 260.839844 C 68.421875 262.117188 69.640625 263.734375 70.488281 265.703125 Z M 108.351562 326.996094 L 96.917969 338.527344 L 87.300781 328.828125 C 81.769531 328.460938 76.296875 326.105469 72.074219 321.855469 C 67.851562 317.589844 65.527344 312.15625 65.15625 306.566406 L 55.539062 296.867188 L 66.972656 285.335938 C 67.191406 285.042969 67.636719 285.042969 67.914062 285.335938 L 74.109375 291.585938 C 74.402344 291.800781 74.402344 292.246094 74.1875 292.464844 C 71.273438 296.066406 69.808594 300.390625 69.808594 304.734375 C 69.808594 309.738281 71.707031 314.648438 75.496094 318.46875 C 79.210938 322.207031 84.15625 324.117188 89.042969 324.117188 C 93.339844 324.117188 97.703125 322.65625 101.199219 319.714844 C 101.492188 319.5 101.863281 319.5625 102.078125 319.792969 L 108.335938 326.042969 C 108.566406 326.335938 108.566406 326.78125 108.351562 326.996094 Z M 76.667969 292.246094 C 80.089844 288.800781 84.605469 287.027344 89.042969 287.027344 C 93.558594 287.027344 97.996094 288.800781 101.417969 292.246094 C 104.835938 295.695312 106.578125 300.175781 106.578125 304.734375 C 106.578125 309.292969 104.835938 313.773438 101.417969 317.21875 C 97.996094 320.667969 93.558594 322.441406 89.042969 322.441406 C 84.605469 322.441406 80.089844 320.667969 76.667969 317.21875 C 73.246094 313.773438 71.503906 309.292969 71.503906 304.734375 C 71.503906 300.175781 73.246094 295.695312 76.667969 292.246094 Z M 121.496094 287.089844 C 110.433594 298.328125 124.117188 311.125 119.523438 315.742188 L 111.21875 324.117188 C 110.925781 324.410156 110.492188 324.410156 110.277344 324.117188 L 104.019531 317.867188 C 103.804688 317.652344 103.804688 317.207031 104.019531 316.988281 C 106.855469 313.386719 108.320312 309.0625 108.320312 304.71875 C 108.320312 299.792969 106.425781 294.804688 102.710938 291.046875 C 98.921875 287.230469 94.050781 285.320312 89.089844 285.320312 C 84.789062 285.320312 80.488281 286.78125 76.929688 289.722656 C 76.714844 289.9375 76.265625 289.875 76.050781 289.644531 L 69.855469 283.394531 C 69.5625 283.101562 69.5625 282.65625 69.855469 282.441406 L 78.164062 273.988281 C 82.753906 269.355469 95.5 283.242188 106.5625 272 L 110.402344 268.136719 L 118.832031 269.554688 L 107.550781 280.933594 C 104.207031 284.320312 109.292969 289.460938 112.652344 286.074219 L 127.570312 271.015625 L 129.1875 271.292969 L 113.589844 287.027344 C 113.375 287.242188 113.160156 287.535156 112.867188 287.765625 C 110.386719 290.261719 106.75 290.847656 103.25 289.753906 C 103.328125 289.832031 103.464844 289.96875 103.621094 290.125 C 107.472656 294.019531 109.585938 299.238281 109.585938 304.75 C 109.585938 309.308594 108.121094 313.789062 105.363281 317.390625 L 106.75 318.789062 L 117.8125 307.628906 C 115.839844 301.746094 113.222656 293.527344 120.511719 286.167969 L 134.394531 272.15625 L 136.027344 272.433594 Z M 308.027344 285.335938 L 319.460938 296.867188 L 309.84375 306.566406 C 309.472656 312.15625 307.148438 317.589844 302.925781 321.855469 C 298.703125 326.105469 293.230469 328.460938 287.699219 328.828125 L 278.082031 338.527344 L 266.648438 326.996094 C 266.433594 326.78125 266.433594 326.335938 266.664062 326.042969 L 272.921875 319.792969 C 273.136719 319.5625 273.507812 319.5 273.800781 319.714844 C 277.296875 322.65625 281.660156 324.117188 285.957031 324.117188 C 290.84375 324.117188 295.789062 322.210938 299.503906 318.46875 C 303.292969 314.648438 305.191406 309.738281 305.191406 304.734375 C 305.191406 300.390625 303.726562 296.066406 300.8125 292.464844 C 300.597656 292.246094 300.597656 291.800781 300.890625 291.585938 L 307.085938 285.335938 C 307.363281 285.042969 307.808594 285.042969 308.027344 285.335938 Z M 268.421875 304.734375 C 268.421875 300.175781 270.160156 295.695312 273.582031 292.246094 C 277.003906 288.800781 281.441406 287.027344 285.957031 287.027344 C 290.394531 287.027344 294.910156 288.800781 298.332031 292.246094 C 301.753906 295.695312 303.496094 300.175781 303.496094 304.734375 C 303.496094 309.292969 301.753906 313.773438 298.332031 317.21875 C 294.910156 320.667969 290.394531 322.441406 285.957031 322.441406 C 281.441406 322.441406 277.003906 320.667969 273.582031 317.21875 C 270.160156 313.773438 268.421875 309.292969 268.421875 304.734375 Z M 268.480469 272 C 279.546875 283.242188 292.292969 269.355469 296.882812 273.988281 L 305.191406 282.441406 C 305.484375 282.65625 305.484375 283.101562 305.191406 283.394531 L 298.996094 289.644531 C 298.78125 289.875 298.332031 289.9375 298.117188 289.722656 C 294.558594 286.78125 290.257812 285.320312 285.957031 285.320312 C 280.996094 285.320312 276.125 287.230469 272.335938 291.046875 C 268.621094 294.804688 266.726562 299.792969 266.726562 304.71875 C 266.726562 309.0625 268.191406 313.386719 271.023438 316.988281 C 271.242188 317.207031 271.242188 317.652344 271.023438 317.867188 L 264.769531 324.117188 C 264.550781 324.410156 264.121094 324.410156 263.828125 324.117188 L 255.523438 315.742188 C 250.929688 311.125 264.613281 298.328125 253.550781 287.089844 L 239.015625 272.433594 L 240.605469 272.171875 L 254.472656 286.183594 C 261.761719 293.542969 259.144531 301.761719 257.171875 307.644531 L 268.234375 318.804688 L 269.621094 317.40625 C 266.863281 313.800781 265.398438 309.324219 265.398438 304.765625 C 265.398438 299.253906 267.511719 294.035156 271.363281 290.136719 C 271.519531 289.984375 271.65625 289.847656 271.734375 289.769531 C 268.234375 290.863281 264.597656 290.277344 262.117188 287.78125 C 261.824219 287.550781 261.609375 287.257812 261.394531 287.042969 L 245.796875 271.308594 L 247.417969 271.03125 L 262.347656 286.089844 C 265.707031 289.476562 270.792969 284.335938 267.449219 280.945312 L 256.167969 269.570312 L 264.628906 268.152344 Z M 320.753906 258.960938 C 320.476562 258.898438 320.246094 258.882812 319.984375 258.851562 L 320.863281 258.699219 C 320.832031 258.792969 320.785156 258.867188 320.753906 258.960938 Z M 367.140625 244.195312 L 329.167969 250.554688 L 323.175781 251.554688 L 318.78125 252.292969 L 298.070312 255.757812 L 263.691406 261.515625 L 258.867188 262.316406 L 250.40625 263.734375 L 241.652344 265.195312 L 240.035156 265.472656 L 234.839844 266.335938 L 233.238281 266.597656 L 228.324219 267.414062 L 187.5 274.25 L 146.691406 267.429688 L 141.824219 266.613281 L 140.191406 266.335938 L 134.964844 265.457031 L 133.347656 265.179688 L 124.59375 263.71875 L 116.164062 262.300781 L 111.292969 261.484375 L 76.945312 255.742188 L 52.164062 251.601562 L 51.839844 251.539062 L 45.847656 250.539062 L 7.875 244.179688 L 7.875 192.21875 L 37.464844 187.261719 L 46.386719 185.765625 L 48.390625 185.429688 L 64.648438 182.703125 L 96.117188 177.421875 L 98.84375 176.960938 L 101.402344 176.53125 L 103.683594 176.144531 L 112.558594 174.652344 L 133.054688 171.21875 L 137.941406 170.402344 L 139.558594 170.125 L 144.734375 169.261719 L 146.308594 169 L 155.105469 167.523438 L 158.714844 166.921875 L 160.902344 166.554688 L 163.535156 166.105469 L 168.375 165.289062 L 187.5 162.089844 L 206.625 165.289062 L 211.496094 166.105469 L 214.144531 166.554688 L 216.300781 166.921875 L 219.910156 167.523438 L 228.691406 169 L 230.28125 169.261719 L 235.441406 170.125 L 237.058594 170.402344 L 241.914062 171.21875 L 262.394531 174.652344 L 271.285156 176.144531 L 273.566406 176.53125 L 276.125 176.960938 L 278.839844 177.421875 L 310.351562 182.703125 L 337.507812 187.261719 L 367.09375 192.21875 L 367.09375 244.195312 Z M 367.140625 244.195312 "/><path style=" stroke:none;fill-rule:nonzero;fill:#000000;fill-opacity:1;" d="M 184.078125 115.363281 C 183.675781 115.683594 183.371094 116.101562 183.199219 116.574219 C 183.175781 116.644531 183.144531 116.726562 183.105469 116.820312 C 182.507812 116.226562 182.078125 115.796875 181.996094 115.71875 C 181.6875 115.421875 181.382812 115.128906 181.082031 114.839844 C 180.476562 114.257812 179.894531 113.703125 179.335938 113.179688 C 178.777344 112.65625 178.246094 112.164062 177.753906 111.710938 C 177.265625 111.257812 176.8125 110.84375 176.410156 110.480469 C 176.050781 110.167969 175.90625 109.746094 175.902344 109.398438 C 175.898438 109.046875 176.003906 108.773438 176.101562 108.609375 C 176.128906 108.566406 176.148438 108.53125 176.167969 108.5 C 176.1875 108.46875 176.210938 108.441406 176.226562 108.421875 C 176.261719 108.378906 176.277344 108.355469 176.277344 108.355469 C 176.308594 108.316406 176.300781 108.261719 176.261719 108.230469 C 176.226562 108.203125 176.175781 108.207031 176.144531 108.238281 C 176.144531 108.238281 176.125 108.253906 176.085938 108.292969 C 176.066406 108.3125 176.042969 108.332031 176.011719 108.363281 C 175.984375 108.398438 175.949219 108.433594 175.914062 108.480469 C 175.878906 108.523438 175.847656 108.574219 175.808594 108.632812 C 175.773438 108.695312 175.734375 108.757812 175.703125 108.835938 C 175.628906 108.984375 175.578125 109.167969 175.554688 109.382812 C 175.535156 109.597656 175.546875 109.839844 175.625 110.09375 C 175.699219 110.347656 175.84375 110.617188 176.054688 110.835938 C 176.417969 111.238281 176.828125 111.695312 177.28125 112.183594 C 177.738281 112.675781 178.226562 113.207031 178.753906 113.761719 C 179.277344 114.320312 179.832031 114.90625 180.410156 115.507812 C 180.699219 115.808594 180.992188 116.117188 181.292969 116.425781 C 181.382812 116.515625 181.90625 117.042969 182.609375 117.75 C 182.445312 118.011719 182.242188 118.304688 181.992188 118.621094 L 175.539062 112.171875 L 175.550781 112.160156 C 175.121094 111.753906 174.660156 111.390625 174.167969 111.066406 C 173.582031 110.683594 172.957031 110.363281 172.296875 110.105469 C 171.324219 109.730469 170.332031 109.441406 169.53125 109.21875 C 168.890625 109.039062 168.246094 108.898438 167.609375 108.753906 C 166.324219 108.464844 165.058594 108.175781 163.835938 107.582031 C 160.578125 105.996094 158.8125 103.039062 158.066406 99.585938 C 157.984375 99.210938 158.390625 98.921875 158.714844 99.121094 L 163.59375 102.078125 C 164.613281 102.699219 165.9375 102.410156 166.609375 101.425781 L 168.328125 98.914062 C 169.039062 97.871094 168.753906 96.449219 167.695312 95.761719 L 162.875 92.652344 C 162.566406 92.453125 162.632812 91.980469 162.984375 91.871094 C 166.058594 90.917969 169.832031 90.710938 172.464844 92.859375 C 174.421875 94.460938 174.484375 96.664062 175.039062 98.996094 C 175.054688 99.0625 175.0625 99.132812 175.066406 99.203125 C 175.078125 99.820312 174.984375 102.195312 173.1875 105.3125 C 173.226562 105.269531 174.558594 103.871094 175.746094 101.46875 C 176.257812 102.925781 176.949219 104.300781 178 105.464844 C 178.558594 106.078125 179.289062 106.839844 180.074219 107.636719 L 186.171875 113.730469 C 186.085938 113.777344 186.003906 113.832031 185.925781 113.894531 Z M 216.261719 140.027344 L 211.382812 137.066406 C 210.363281 136.449219 209.039062 136.734375 208.367188 137.71875 L 206.648438 140.234375 C 205.9375 141.277344 206.222656 142.699219 207.285156 143.386719 L 212.097656 146.492188 C 212.410156 146.695312 212.34375 147.164062 211.988281 147.273438 C 208.917969 148.230469 205.144531 148.4375 202.511719 146.285156 C 200.554688 144.683594 200.492188 142.480469 199.9375 140.152344 C 199.9375 140.152344 199.9375 140.148438 199.9375 140.148438 C 199.921875 140.082031 199.910156 140.011719 199.910156 139.945312 C 199.898438 139.328125 199.992188 136.953125 201.789062 133.835938 C 201.75 133.878906 200.417969 135.273438 199.230469 137.675781 C 198.71875 136.222656 198.027344 134.84375 196.972656 133.683594 C 196.640625 133.3125 196.242188 132.890625 195.808594 132.441406 L 188.667969 125.296875 C 188.96875 125.058594 189.253906 124.859375 189.507812 124.699219 C 189.984375 125.175781 190.457031 125.648438 190.929688 126.113281 C 191.242188 126.421875 191.550781 126.726562 191.859375 127.027344 C 192.164062 127.328125 192.46875 127.625 192.769531 127.917969 C 193.367188 128.5 193.949219 129.058594 194.5 129.585938 C 195.054688 130.113281 195.585938 130.609375 196.074219 131.066406 L 196.117188 131.105469 L 196.140625 131.128906 C 196.15625 131.144531 196.160156 131.144531 196.160156 131.144531 L 196.160156 131.148438 L 196.167969 131.152344 L 196.179688 131.164062 C 196.210938 131.1875 196.242188 131.214844 196.273438 131.242188 C 196.285156 131.253906 196.316406 131.273438 196.335938 131.289062 L 196.46875 131.382812 L 196.535156 131.417969 C 196.703125 131.519531 196.886719 131.585938 197.066406 131.628906 C 197.246094 131.675781 197.425781 131.683594 197.601562 131.679688 C 197.6875 131.671875 197.773438 131.671875 197.855469 131.652344 C 197.898438 131.644531 197.941406 131.636719 197.980469 131.628906 C 198.019531 131.617188 198.058594 131.605469 198.097656 131.597656 C 198.410156 131.503906 198.675781 131.339844 198.871094 131.148438 C 199.074219 130.957031 199.214844 130.742188 199.304688 130.539062 C 199.398438 130.332031 199.441406 130.132812 199.457031 129.960938 C 199.472656 129.789062 199.464844 129.644531 199.449219 129.527344 C 199.429688 129.410156 199.410156 129.324219 199.390625 129.265625 C 199.375 129.210938 199.363281 129.179688 199.363281 129.179688 C 199.335938 129.085938 199.230469 129.03125 199.136719 129.0625 C 199.046875 129.089844 198.996094 129.175781 199.007812 129.265625 L 199.011719 129.28125 C 199.011719 129.28125 199.015625 129.304688 199.023438 129.351562 C 199.03125 129.398438 199.035156 129.46875 199.039062 129.5625 C 199.039062 129.742188 199.007812 130.019531 198.84375 130.304688 C 198.800781 130.375 198.75 130.445312 198.691406 130.515625 C 198.664062 130.542969 198.644531 130.570312 198.597656 130.613281 L 198.5625 130.648438 L 198.558594 130.648438 L 198.542969 130.660156 C 198.523438 130.675781 198.507812 130.691406 198.488281 130.707031 C 198.332031 130.820312 198.148438 130.921875 197.929688 130.960938 C 197.90625 130.96875 197.878906 130.972656 197.851562 130.976562 C 197.824219 130.980469 197.796875 130.980469 197.769531 130.984375 C 197.714844 130.992188 197.65625 130.988281 197.597656 130.988281 C 197.484375 130.976562 197.367188 130.964844 197.257812 130.921875 C 197.144531 130.882812 197.03125 130.835938 196.933594 130.765625 L 196.894531 130.742188 L 196.863281 130.714844 L 196.832031 130.691406 C 196.820312 130.683594 196.8125 130.679688 196.796875 130.660156 C 196.769531 130.632812 196.738281 130.605469 196.707031 130.578125 C 196.683594 130.550781 196.660156 130.523438 196.636719 130.5 C 196.179688 130.011719 195.6875 129.484375 195.160156 128.929688 C 194.628906 128.375 194.070312 127.792969 193.488281 127.195312 C 193.199219 126.894531 192.902344 126.59375 192.601562 126.285156 C 192.300781 125.980469 191.996094 125.667969 191.6875 125.359375 C 191.296875 124.964844 190.902344 124.566406 190.503906 124.167969 C 190.582031 124.136719 190.652344 124.109375 190.710938 124.089844 C 191.1875 123.917969 191.605469 123.613281 191.925781 123.210938 L 193.394531 121.359375 C 193.457031 121.285156 193.511719 121.203125 193.558594 121.117188 L 199.480469 127.039062 C 199.894531 127.421875 200.339844 127.769531 200.808594 128.078125 C 201.394531 128.464844 202.019531 128.785156 202.675781 129.039062 C 203.652344 129.417969 204.644531 129.703125 205.441406 129.925781 C 206.085938 130.105469 206.730469 130.25 207.367188 130.394531 C 208.648438 130.679688 209.917969 130.972656 211.140625 131.5625 C 214.398438 133.148438 216.160156 136.109375 216.910156 139.5625 C 216.992188 139.933594 216.585938 140.222656 216.261719 140.027344 "/><path style=" stroke:none;fill-rule:nonzero;fill:#000000;fill-opacity:1;" d="M 170.839844 130.980469 C 169.148438 132.0625 167.550781 133.085938 165.714844 135.609375 C 163.917969 138.082031 162.222656 139.21875 161.113281 139.738281 C 161.113281 139.742188 161.109375 139.742188 161.109375 139.742188 C 163.222656 135.09375 169.132812 129.605469 172.332031 126.851562 C 173.492188 125.855469 174.757812 124.980469 176.101562 124.25 C 177.070312 123.726562 177.917969 123.207031 178.667969 122.695312 C 177.9375 123.980469 176.980469 125.421875 175.734375 126.871094 C 173.886719 129.03125 172.335938 130.023438 170.839844 130.980469 "/><path style=" stroke:none;fill-rule:nonzero;fill:#000000;fill-opacity:1;" d="M 171.679688 141.574219 C 174.203125 139.738281 175.226562 138.140625 176.308594 136.449219 C 177.265625 134.953125 178.257812 133.402344 180.417969 131.554688 C 181.867188 130.308594 183.308594 129.351562 184.59375 128.621094 C 184.082031 129.371094 183.5625 130.222656 183.039062 131.1875 C 182.308594 132.53125 181.433594 133.796875 180.4375 134.957031 C 177.683594 138.15625 172.195312 144.066406 167.546875 146.179688 C 167.546875 146.179688 167.546875 146.175781 167.550781 146.175781 C 168.066406 145.066406 169.207031 143.371094 171.679688 141.574219 "/><path style=" stroke:none;fill-rule:nonzero;fill:#000000;fill-opacity:1;" d="M 166.121094 143.792969 C 166.847656 143.070312 166.847656 141.894531 166.121094 141.167969 C 165.394531 140.441406 164.222656 140.441406 163.496094 141.167969 C 162.769531 141.890625 162.769531 143.066406 163.496094 143.792969 C 164.222656 144.519531 165.398438 144.519531 166.121094 143.792969 Z M 169.109375 139.585938 C 169.472656 139.585938 169.832031 139.445312 170.105469 139.171875 L 183.257812 126.019531 C 183.808594 125.46875 183.808594 124.578125 183.257812 124.03125 C 182.984375 123.753906 182.625 123.617188 182.265625 123.617188 C 181.90625 123.617188 181.542969 123.753906 181.269531 124.03125 L 168.117188 137.183594 C 167.566406 137.734375 167.566406 138.625 168.117188 139.171875 C 168.390625 139.449219 168.75 139.585938 169.109375 139.585938 Z M 208.199219 99.53125 C 208.335938 99.667969 208.550781 99.695312 208.71875 99.601562 L 210.453125 98.621094 C 210.53125 98.578125 210.597656 98.515625 210.644531 98.441406 L 213.410156 94.289062 C 213.488281 94.171875 213.472656 94.015625 213.371094 93.917969 C 213.324219 93.867188 213.257812 93.835938 213.191406 93.832031 C 213.125 93.824219 213.058594 93.839844 213 93.878906 L 208.847656 96.644531 C 208.773438 96.691406 208.710938 96.757812 208.667969 96.835938 L 207.6875 98.570312 C 207.59375 98.742188 207.621094 98.953125 207.757812 99.089844 Z M 160.71875 140.714844 C 162.253906 140.179688 164.304688 138.824219 166.324219 136.050781 C 168.074219 133.640625 169.613281 132.65625 171.246094 131.613281 C 172.480469 130.820312 173.746094 130.007812 175.191406 128.566406 C 175.550781 128.207031 175.921875 127.808594 176.304688 127.359375 C 178.074219 125.296875 179.277344 123.28125 180.070312 121.664062 C 182.765625 119.511719 183.679688 117.679688 183.976562 116.855469 C 184.097656 116.519531 184.3125 116.230469 184.589844 116.007812 L 186.441406 114.542969 C 186.867188 114.203125 187.476562 114.238281 187.863281 114.621094 L 188.328125 115.089844 L 188.394531 115.023438 C 188.621094 114.796875 188.988281 114.796875 189.214844 115.023438 L 189.828125 115.632812 L 206.070312 99.386719 C 206.273438 99.1875 206.449219 98.957031 206.585938 98.710938 L 207.988281 96.226562 C 208.035156 96.144531 208.101562 96.070312 208.183594 96.019531 L 213.175781 92.695312 C 213.300781 92.609375 213.464844 92.628906 213.570312 92.734375 L 214.554688 93.71875 C 214.660156 93.824219 214.675781 93.988281 214.597656 94.113281 L 211.269531 99.105469 C 211.21875 99.1875 211.144531 99.253906 211.0625 99.300781 L 208.578125 100.703125 C 208.332031 100.84375 208.105469 101.015625 207.902344 101.21875 L 191.65625 117.460938 L 192.265625 118.074219 C 192.492188 118.300781 192.492188 118.667969 192.265625 118.894531 L 192.199219 118.960938 L 192.667969 119.425781 C 193.050781 119.8125 193.085938 120.421875 192.75 120.847656 L 191.28125 122.699219 C 191.058594 122.976562 190.765625 123.191406 190.433594 123.3125 C 189.609375 123.609375 187.777344 124.523438 185.625 127.21875 C 184.007812 128.011719 181.992188 129.214844 179.929688 130.984375 C 177.683594 132.90625 176.664062 134.5 175.675781 136.042969 C 174.632812 137.675781 173.648438 139.214844 171.238281 140.96875 C 168.464844 142.984375 167.109375 145.035156 166.574219 146.570312 C 164.714844 147.210938 163.035156 147.125 161.796875 145.859375 C 161.675781 145.734375 161.554688 145.613281 161.429688 145.492188 C 160.164062 144.253906 160.078125 142.574219 160.71875 140.714844 "/><g style="fill:#000000;fill-opacity:1;"><g transform="translate(68.530927, 237.087904)"><path style="stroke:none" d="M 16.328125 0.453125 C 21.085938 0.492188 24.75 -0.335938 27.3125 -2.046875 C 29.882812 -3.765625 31.171875 -6.234375 31.171875 -9.453125 C 31.171875 -11.253906 30.6875 -12.753906 29.71875 -13.953125 C 28.757812 -15.148438 27.53125 -16.132812 26.03125 -16.90625 C 24.53125 -17.675781 22.921875 -18.304688 21.203125 -18.796875 C 19.492188 -19.296875 17.890625 -19.71875 16.390625 -20.0625 C 14.890625 -20.40625 13.65625 -20.757812 12.6875 -21.125 C 11.726562 -21.488281 11.25 -21.945312 11.25 -22.5 C 11.25 -23.914062 12.878906 -24.625 16.140625 -24.625 C 19.140625 -24.625 21.046875 -23.316406 21.859375 -20.703125 L 30.34375 -23.015625 C 29.488281 -26.097656 27.828125 -28.472656 25.359375 -30.140625 C 22.898438 -31.816406 19.828125 -32.65625 16.140625 -32.65625 C 11.378906 -32.65625 7.710938 -31.796875 5.140625 -30.078125 C 2.566406 -28.367188 1.28125 -25.925781 1.28125 -22.75 C 1.28125 -20.957031 1.757812 -19.46875 2.71875 -18.28125 C 3.6875 -17.101562 4.929688 -16.140625 6.453125 -15.390625 C 7.984375 -14.640625 9.59375 -14.03125 11.28125 -13.5625 C 12.976562 -13.09375 14.585938 -12.6875 16.109375 -12.34375 C 17.628906 -12 18.867188 -11.632812 19.828125 -11.25 C 20.796875 -10.863281 21.28125 -10.347656 21.28125 -9.703125 C 21.28125 -9.066406 20.847656 -8.578125 19.984375 -8.234375 C 19.128906 -7.890625 17.910156 -7.71875 16.328125 -7.71875 C 13.367188 -7.71875 11.484375 -8.957031 10.671875 -11.4375 L 2.125 -9.125 C 3.019531 -6.039062 4.695312 -3.660156 7.15625 -1.984375 C 9.625 -0.316406 12.679688 0.492188 16.328125 0.453125 Z M 16.328125 0.453125 "/></g></g><g style="fill:#000000;fill-opacity:1;"><g transform="translate(110.316579, 237.087904)"><path style="stroke:none" d="M 12.53125 -24.109375 L 12.53125 -19.921875 L 26.75 -19.921875 L 26.75 -12.21875 L 12.53125 -12.21875 L 12.53125 -8.03125 L 26.75 -8.03125 L 26.75 0 L 2.125 0 L 2.125 -32.140625 L 26.75 -32.140625 L 26.75 -24.109375 Z M 12.53125 -24.109375 "/></g></g><g style="fill:#000000;fill-opacity:1;"><g transform="translate(148.180813, 237.087904)"><path style="stroke:none" d="M 23.078125 -4.6875 L 12.28125 -4.6875 L 10.546875 0 L 0.453125 0 L 12.46875 -32.140625 L 23.015625 -32.140625 L 34.90625 0 L 24.75 0 Z M 20.25 -12.40625 L 17.75 -21.21875 L 15.109375 -12.40625 Z M 20.25 -12.40625 "/></g></g><g style="fill:#000000;fill-opacity:1;"><g transform="translate(192.473608, 237.087904)"><path style="stroke:none" d="M 26.421875 -13.890625 C 28.734375 -12.046875 29.890625 -9.171875 29.890625 -5.265625 L 29.890625 0 L 20.375 0 L 20.375 -6.625 C 20.375 -9.445312 19.046875 -11.097656 16.390625 -11.578125 L 12.53125 -11.578125 L 12.53125 0 L 2.125 0 L 2.125 -32.140625 L 19.09375 -32.140625 C 22.601562 -32.140625 25.3125 -31.25 27.21875 -29.46875 C 29.125 -27.695312 30.078125 -25.160156 30.078125 -21.859375 C 30.078125 -18.253906 28.859375 -15.597656 26.421875 -13.890625 Z M 17.671875 -19.28125 C 19.734375 -19.28125 20.765625 -20.078125 20.765625 -21.671875 C 20.765625 -23.296875 19.734375 -24.109375 17.671875 -24.109375 L 12.53125 -24.109375 L 12.53125 -19.28125 Z M 17.671875 -19.28125 "/></g></g><g style="fill:#000000;fill-opacity:1;"><g transform="translate(233.294981, 237.087904)"><path style="stroke:none" d="M 20.25 -13.4375 C 19.78125 -10.175781 18.453125 -8.546875 16.265625 -8.546875 C 14.929688 -8.546875 13.890625 -9.195312 13.140625 -10.5 C 12.390625 -11.8125 12.015625 -13.671875 12.015625 -16.078125 C 12.015625 -18.515625 12.390625 -20.382812 13.140625 -21.6875 C 13.890625 -23 14.929688 -23.65625 16.265625 -23.65625 C 17.253906 -23.65625 18.097656 -23.222656 18.796875 -22.359375 C 19.503906 -21.503906 19.988281 -20.285156 20.25 -18.703125 L 30.34375 -20.3125 C 29.53125 -24.257812 27.898438 -27.300781 25.453125 -29.4375 C 23.015625 -31.582031 19.929688 -32.65625 16.203125 -32.65625 C 11.566406 -32.65625 7.992188 -31.21875 5.484375 -28.34375 C 2.984375 -25.476562 1.734375 -21.390625 1.734375 -16.078125 C 1.734375 -10.804688 2.984375 -6.722656 5.484375 -3.828125 C 7.992188 -0.929688 11.566406 0.515625 16.203125 0.515625 C 19.929688 0.515625 23.015625 -0.566406 25.453125 -2.734375 C 27.898438 -4.898438 29.53125 -7.929688 30.34375 -11.828125 Z M 20.25 -13.4375 "/></g></g><g style="fill:#000000;fill-opacity:1;"><g transform="translate(274.309216, 237.087904)"><path style="stroke:none" d="M 30.078125 -32.140625 L 30.078125 0 L 19.609375 0 L 19.609375 -11.578125 L 12.53125 -11.578125 L 12.53125 0 L 2.125 0 L 2.125 -32.140625 L 12.53125 -32.140625 L 12.53125 -20.578125 L 19.609375 -20.578125 L 19.609375 -32.140625 Z M 30.078125 -32.140625 "/></g></g><g style="fill:#000000;fill-opacity:1;"><g transform="translate(149.565332, 302.848809)"><path style="stroke:none" d="M 9.375 -1.953125 L 9.375 0 L 1.25 0 L 1.25 -10.5 L 9.1875 -10.5 L 9.1875 -8.546875 L 3.65625 -8.546875 L 3.65625 -6.265625 L 8.53125 -6.265625 L 8.53125 -4.375 L 3.65625 -4.375 L 3.65625 -1.953125 Z M 9.375 -1.953125 "/></g></g><g style="fill:#000000;fill-opacity:1;"><g transform="translate(162.63035, 302.848809)"><path style="stroke:none" d="M 10.875 -10.5 L 10.875 0 L 8.875 0 L 3.640625 -6.375 L 3.640625 0 L 1.25 0 L 1.25 -10.5 L 3.25 -10.5 L 8.46875 -4.125 L 8.46875 -10.5 Z M 10.875 -10.5 "/></g></g><g style="fill:#000000;fill-opacity:1;"><g transform="translate(177.750369, 302.848809)"><path style="stroke:none" d="M 8.34375 -5.421875 L 10.5625 -5.421875 L 10.5625 -1.15625 C 9.988281 -0.726562 9.328125 -0.394531 8.578125 -0.15625 C 7.828125 0.0703125 7.070312 0.1875 6.3125 0.1875 C 5.226562 0.1875 4.25 -0.046875 3.375 -0.515625 C 2.5 -0.984375 1.8125 -1.628906 1.3125 -2.453125 C 0.820312 -3.273438 0.578125 -4.207031 0.578125 -5.25 C 0.578125 -6.289062 0.820312 -7.222656 1.3125 -8.046875 C 1.8125 -8.867188 2.5 -9.515625 3.375 -9.984375 C 4.257812 -10.453125 5.253906 -10.6875 6.359375 -10.6875 C 7.273438 -10.6875 8.109375 -10.53125 8.859375 -10.21875 C 9.609375 -9.90625 10.238281 -9.453125 10.75 -8.859375 L 9.1875 -7.421875 C 8.4375 -8.210938 7.535156 -8.609375 6.484375 -8.609375 C 5.804688 -8.609375 5.207031 -8.46875 4.6875 -8.1875 C 4.175781 -7.90625 3.773438 -7.507812 3.484375 -7 C 3.191406 -6.488281 3.046875 -5.90625 3.046875 -5.25 C 3.046875 -4.601562 3.191406 -4.023438 3.484375 -3.515625 C 3.773438 -3.003906 4.175781 -2.601562 4.6875 -2.3125 C 5.195312 -2.03125 5.785156 -1.890625 6.453125 -1.890625 C 7.148438 -1.890625 7.78125 -2.039062 8.34375 -2.34375 Z M 8.34375 -5.421875 "/></g></g><g style="fill:#000000;fill-opacity:1;"><g transform="translate(192.315392, 302.848809)"><path style="stroke:none" d="M 1.25 -10.5 L 3.671875 -10.5 L 3.671875 0 L 1.25 0 Z M 1.25 -10.5 "/></g></g><g style="fill:#000000;fill-opacity:1;"><g transform="translate(200.235404, 302.848809)"><path style="stroke:none" d="M 10.875 -10.5 L 10.875 0 L 8.875 0 L 3.640625 -6.375 L 3.640625 0 L 1.25 0 L 1.25 -10.5 L 3.25 -10.5 L 8.46875 -4.125 L 8.46875 -10.5 Z M 10.875 -10.5 "/></g></g><g style="fill:#000000;fill-opacity:1;"><g transform="translate(215.355423, 302.848809)"><path style="stroke:none" d="M 9.375 -1.953125 L 9.375 0 L 1.25 0 L 1.25 -10.5 L 9.1875 -10.5 L 9.1875 -8.546875 L 3.65625 -8.546875 L 3.65625 -6.265625 L 8.53125 -6.265625 L 8.53125 -4.375 L 3.65625 -4.375 L 3.65625 -1.953125 Z M 9.375 -1.953125 "/></g></g></g></svg>